<svg xmlns="http://www.w3.org/2000/svg" viewBox="0 0 372.33 295.11"><g id="Layer_2" data-name="Layer 2"><g id="Layer_2-2" data-name="Layer 2"><path d="M361.37,215c-5.86-.62-34.1-1.19-34.1-1.19s-15.45.78-23.22-10.16c-3.26-4.56-6.74-13.63-9.79-23a169,169,0,0,1-8.14-51.83V114.42a206.94,206.94,0,0,1,1.35-26,116.08,116.08,0,0,0,.13-23.73,18.93,18.93,0,0,0-5.77-12c-12-11.41-25.06-3.28-30.59-12.21C244.71,30,252-2.44,232.58.15c-13,1.76-13,10.1-11,16.43a26.35,26.35,0,0,0,6.22,10.15C234,33.32,247,49.48,242.74,55.86a21.38,21.38,0,0,1-5.59,5.55,29.35,29.35,0,0,1-20.68,4.94c-39.6-5.19-85.39-12.69-101.87-15.48a32.94,32.94,0,0,1-7.84-2.34c-6.35-2.82-3.82-3.7-12.29-5.78a15.88,15.88,0,0,0-11.35,1.5,8.63,8.63,0,0,1-4.41,1,53,53,0,0,0-8.5.93C49.28,49.8,73,52.54,73,52.54a10.12,10.12,0,0,1,7.52,3.37c3.52,3.58,5.59,4.92,9.17,4.87a35.51,35.51,0,0,0,11.35-2,5,5,0,0,1,2.59-.26C131.32,63.37,197.86,73,217,75.71A10.23,10.23,0,0,1,225.28,82c5.8,15.18,1,43.74-.52,51.67a.81.81,0,0,0,1.29.83c12-9.8,25.5-21.46,36.85-32.24,10.83-10.31,17.52-22.47,18.45-21.76.67.51-3.26,11.61-14.3,22.64a406.09,406.09,0,0,1-41.67,36l-32.34,22s10.16-15.4,9.74-17.26c-1-4.15-4.19-1.87-4.19-1.87l-16.8,22.44a5.79,5.79,0,0,1-3.93,2.28c-3.22.37-8.35.21-11,5.81-3.78,8,.09,13.84-1.87,16.32-4.86,6.19-21.2,25.76-37.84,46.07-15.18,18.56-23.24,29.84-35.65,34.94-3.81,1.56-12.33,2-16.17,2A1.43,1.43,0,0,1,74,270c1.5-5.08,3.88-19.38-1.3-30.47-5.6-11.92-22.49-20-35.81-20.73-6.79-.42-21.92,6.06-31,18.29-8.45,11.46-7.77,30.42,1.71,42.71,19,24.61,46.18,12.95,52.81,9.64,1.71-.88,3.48-.28,8.14-.68a77.14,77.14,0,0,0,25.32-6.11c6.32-2.7,12.87-6.38,17.07-11.82l22.6-30.73,35.81-45.35c4.66-5.65,6.79-4,13.89-8.91,4.45-3,6.06-9.28,7.2-13.11.73-2.6,6.79-5.76,8.4-6.69l18.55-10.73a.73.73,0,0,1,1.09.83c-2.7,9.07-16.48,52.4-12,60.53,5.65,10.21,19.28,23.9,27.22,30.81,8.79,7.63,24.19,25.17,19.63,26.77-6.89,2.44-28.17,8.75-42.55,12.27-2.54.62-3.12,5.9.14,6,12.49.29,45.11,0,45.11,0s6.82,0,15.32,0c5.11,0,5.83-7.58,2.92-12.66-10.73-18.56-12.23-23.79-24-35.87-8.06-8.26-15.07-16.65-19-21.51a19.92,19.92,0,0,1-4.23-15.68,33.28,33.28,0,0,1,2.06-7.17c4.41-10.83,9.43-27.16,11.92-34.15,2.44-6.84,6.27-12.54,11.14-13.06,6.27-.68,8.45-1.14,13.63,9.79s10.37,48.93,15.71,56.44a22.07,22.07,0,0,0,6.37,5.5,36.69,36.69,0,0,0,22.55,4.76c13.63-1.34,38.71-3.68,40.78-2.95,2.85.93,2.49,6.11,2.49,6.11l.21,38s1.14,2.91,5.18,1.3c1.92-.73,9.9-34,13-46.8C373.45,218.38,369.56,215.79,361.37,215ZM44.51,226.42c.36-2.08,14.41,5.8,13.32,7.25-1.61,2.18-9.69.68-11.3-.57S44.09,228.7,44.51,226.42Zm-22,4.2c.78-1.15,3.16-2.54,4.82-3.53a7,7,0,0,1,7.88.36c1.92,1.51-.16,4.41-4.3,6.48-1.35.68-2.75,2-3.89,2.23a3.63,3.63,0,0,1-3.83-1.76C22.69,233.62,21.71,231.81,22.48,230.62Zm-11.3,30.11A7.24,7.24,0,0,1,5.64,252c1.4-6.38,1.5-8.71,5.54-8.71,5.55,0,5.55,3.94,5.55,8.71C16.73,255.18,14.19,261.3,11.18,260.73Zm9.49,21.14c-2.85,0-5.08-1.66-7.52-6.22-2-3.63.63-7.51,3.79-6.58,4.77,1.35,6,4.15,6.63,6.32C25.07,280.42,23.93,281.87,20.67,281.87Zm1.86-29.75c-.77-2,3-4.3,6.64-5.7,1.55-.57,3.42-1.45,4.71-1.4a3.63,3.63,0,0,1,3.22,2.54c.78,2-1,4.41-4.41,6.22-1.4.78-3.83,2.13-5.13,2.07C25.75,255.8,23,253.26,22.53,252.12Zm6.53,17.73c-.25-4.05,3.06-4.1,7-4.87,4.51-.94,8.66-.21,8.35,5.23-.26,3.32,1.55,4-7.52,5.18C32.33,276,29.38,275.34,29.06,269.85Zm13,20.16c-6.89.93-6.16,1.45-6.16-2.13,0-2.49,2.85-4.82,6.11-5.7,5.6-1.5,7.46,2.59,7.83,5C49.85,287.83,45.44,289.59,42.07,290Zm6.79-29.34c-2.64-.41-4.51-3.88-4.51-8.65s3.42-8.4,4.51-8.6c5.75-1.14,6,13,5.18,14.3C52.33,260.67,50.05,260.88,48.86,260.67Zm18,17.27c-3.77,5.34-4.31,7.43-8.17,5.65-8.16-3.77-7.54-1.88-4.08-10.68.68-1.74,1.81-3.66,2.51-4.08,2.07-1.29,11.84-1.5,12.88,0S68.34,275.85,66.87,277.94Zm-6.3-24.42c-1.19-3,1.35-9.43,4.93-9.43,2.43,0,3.83,4.09,4.46,6.69S61.82,256.58,60.57,253.52Z"/></g></g></svg>