<svg xmlns="http://www.w3.org/2000/svg" viewBox="0 0 358.37 284.04"><defs><style>.cls-1{fill:#fff;}</style></defs><g id="Layer_2" data-name="Layer 2"><g id="Layer_4" data-name="Layer 4"><path class="cls-1" d="M347.82,206.91c-5.63-.6-32.82-1.15-32.82-1.15s-14.86.75-22.35-9.78c-3.14-4.39-6.48-13.12-9.42-22.1A162.58,162.58,0,0,1,275.39,124V110.13a199.07,199.07,0,0,1,1.3-25,111.63,111.63,0,0,0,.13-22.83,18.27,18.27,0,0,0-5.55-11.56c-11.58-11-24.12-3.15-29.45-11.75-6.28-10.13.7-41.3-17.95-38.81C211.34,1.84,211.34,9.87,213.29,16a25.32,25.32,0,0,0,6,9.78c6,6.34,18.45,21.9,14.36,28a20.55,20.55,0,0,1-5.38,5.34,28.24,28.24,0,0,1-19.91,4.75c-38.11-5-82.18-12.21-98-14.9a31.56,31.56,0,0,1-7.55-2.25c-6.1-2.72-3.67-3.56-11.82-5.56A15.3,15.3,0,0,0,80,42.59a8.27,8.27,0,0,1-4.24,1,50.83,50.83,0,0,0-8.18.9c-20.15,3.44,2.7,6.08,2.7,6.08a9.72,9.72,0,0,1,7.23,3.25c3.39,3.44,5.39,4.73,8.83,4.68a34.33,34.33,0,0,0,10.92-1.89,4.78,4.78,0,0,1,2.5-.25C126.39,61,190.44,70.23,208.9,72.87a9.84,9.84,0,0,1,7.93,6c5.59,14.61.95,42.1-.5,49.73a.79.79,0,0,0,1.25.8c11.52-9.43,24.54-20.65,35.47-31,10.42-9.93,16.86-21.63,17.76-21,.64.49-3.15,11.17-13.77,21.8a392.28,392.28,0,0,1-40.11,34.67L185.8,155.08s9.78-14.82,9.38-16.61c-1-4-4-1.8-4-1.8L175,158.27a5.63,5.63,0,0,1-3.79,2.2c-3.09.34-8,.19-10.58,5.58-3.64,7.68.09,13.32-1.79,15.72-4.68,5.95-20.41,24.78-36.42,44.34C107.78,244,100,254.82,88.08,259.73c-3.67,1.51-11.87,1.95-15.56,1.9a1.38,1.38,0,0,1-1.3-1.75C72.67,255,75,241.23,70,230.55c-5.39-11.47-21.65-19.25-34.47-20-6.54-.4-21.1,5.83-29.83,17.61-8.13,11-7.48,29.28,1.64,41.1,18.31,23.69,44.45,12.47,50.83,9.28,1.65-.85,3.35-.26,7.84-.65a74.16,74.16,0,0,0,24.37-5.89c6.08-2.59,12.39-6.13,16.43-11.37l21.75-29.58L163,187.45c4.49-5.44,6.53-3.89,13.37-8.58,4.29-2.89,5.83-8.93,6.93-12.62.7-2.49,6.54-5.54,8.08-6.43l17.86-10.33a.7.7,0,0,1,1.05.8c-2.6,8.73-15.87,50.43-11.58,58.26,5.44,9.83,18.56,23,26.2,29.65,8.46,7.34,23.29,24.23,18.9,25.77-6.64,2.35-27.12,8.42-41,11.81-2.45.59-3,5.68.14,5.75,12,.28,43.41,0,43.41,0s6.57,0,14.75,0c4.92,0,5.61-7.3,2.81-12.19-10.32-17.86-11.77-22.9-23.09-34.52-7.76-7.95-14.51-16-18.27-20.71A19.18,19.18,0,0,1,218.54,199a32.15,32.15,0,0,1,2-6.9c4.24-10.42,9.08-26.14,11.48-32.87s6-12.07,10.72-12.57c6-.65,8.13-1.1,13.12,9.43s10,47.08,15.11,54.32a21.58,21.58,0,0,0,6.14,5.29,35.3,35.3,0,0,0,21.7,4.58c13.12-1.29,37.26-3.54,39.26-2.84,2.74.9,2.39,5.89,2.39,5.89l.2,36.61s1.1,2.79,5,1.25c1.85-.7,9.53-32.67,12.47-45.05C359.45,210.2,355.71,207.7,347.82,206.91Zm-305,11c.35-2,13.87,5.59,12.82,7-1.55,2.1-9.33.65-10.87-.54S42.44,220.13,42.84,217.93Zm-21.2,4c.75-1.1,3-2.44,4.64-3.39a6.69,6.69,0,0,1,7.58.35c1.85,1.44-.15,4.24-4.14,6.23-1.3.65-2.64,2-3.74,2.15a3.48,3.48,0,0,1-3.69-1.7C21.84,224.86,20.89,223.12,21.64,222ZM10.77,251a7,7,0,0,1-5.34-8.38c1.35-6.13,1.44-8.38,5.34-8.38,5.33,0,5.33,3.79,5.33,8.38C16.1,245.62,13.66,251.5,10.77,251Zm9.12,20.35c-2.74,0-4.88-1.59-7.23-6-1.94-3.49.6-7.23,3.64-6.34,4.59,1.3,5.79,4,6.39,6.09C24.13,269.91,23,271.3,19.89,271.3Zm1.8-28.63c-.75-1.94,2.84-4.14,6.39-5.49,1.49-.54,3.29-1.39,4.53-1.34a3.49,3.49,0,0,1,3.1,2.44c.75,1.9-1,4.24-4.24,6-1.35.75-3.69,2-4.94,2C24.78,246.21,22.09,243.77,21.69,242.67ZM28,259.73c-.25-3.89,2.94-3.94,6.73-4.69,4.34-.89,8.33-.2,8,5-.25,3.19,1.5,3.84-7.23,5C31.12,265.62,28.27,265,28,259.73ZM40.5,279.14c-6.64.89-5.94,1.39-5.94-2.05,0-2.39,2.74-4.64,5.89-5.49,5.38-1.44,7.18,2.5,7.53,4.84C48,277,43.74,278.74,40.5,279.14ZM47,250.9c-2.54-.4-4.34-3.74-4.34-8.33S46,234.49,47,234.29c5.54-1.1,5.79,12.52,5,13.77C50.37,250.9,48.18,251.1,47,250.9Zm17.33,16.62c-3.63,5.14-4.15,7.16-7.86,5.44-7.86-3.63-7.25-1.81-3.93-10.28.66-1.67,1.75-3.53,2.42-3.93,2-1.24,11.4-1.44,12.39,0S65.78,265.51,64.36,267.52ZM58.3,244c-1.14-2.89,1.3-9.08,4.74-9.08,2.35,0,3.69,3.94,4.29,6.43S59.5,247,58.3,244Z"/></g></g></svg>